<?xml version="1.0" encoding="utf-8"?>
<svg version="1.0" width="500.000000pt" height="500.000000pt" viewBox="0 0 500.000000 500.000000" preserveAspectRatio="xMidYMid meet" xmlns="http://www.w3.org/2000/svg">
  <g transform="translate(0.000000,500.000000) scale(0.100000,-0.100000)" fill="#000000" stroke="none">
    <path d="M3069 4546 c-2 -2 -31 -6 -64 -9 -33 -3 -125 -27 -203 -53 -110 -35 -169 -62 -250 -111 -101 -61 -128 -80 -262 -186 -102 -80 -309 -355 -397 -527 -43 -86 -68 -180 -46 -180 6 0 28 14 49 31 35 28 39 29 43 12 2 -10 8 -21 13 -24 6 -4 -1 -27 -15 -56 -39 -77 -60 -160 -53 -210 8 -63 12 -65 48 -31 32 30 33 30 36 9 3 -19 10 -21 63 -21 32 0 59 -3 59 -6 0 -18 -74 -124 -112 -160 -80 -77 -250 -119 -468 -116 -402 4 -758 -86 -907 -230 -50 -49 -97 -133 -118 -213 -19 -76 -19 -233 0 -327 27 -127 105 -268 171 -311 l35 -22 2 -115 c2 -97 6 -122 25 -157 46 -87 127 -152 154 -125 8 8 8 15 1 24 -12 15 -26 68 -18 68 2 0 11 -15 18 -33 18 -42 99 -114 138 -122 17 -4 32 -12 34 -18 30 -111 45 -137 68 -118 12 9 16 7 20 -9 3 -11 17 -24 31 -30 15 -5 54 -23 87 -40 34 -16 67 -30 74 -30 8 0 21 24 30 55 10 35 21 55 30 55 26 0 16 27 -20 54 -41 32 -82 106 -91 167 -5 29 -18 56 -40 79 -86 94 -111 147 -125 267 -13 119 -16 140 -34 197 -8 27 -15 81 -15 120 0 65 4 79 51 173 28 57 54 105 57 107 12 6 143 -13 231 -35 127 -31 224 -81 304 -158 51 -49 70 -62 76 -52 7 11 21 9 77 -9 72 -24 182 -76 243 -115 20 -13 52 -26 71 -29 19 -4 71 -26 115 -49 76 -40 81 -45 110 -105 17 -35 35 -60 42 -58 19 8 263 -253 360 -386 52 -70 117 -182 139 -238 10 -24 45 -90 79 -145 63 -106 106 -205 149 -342 33 -104 35 -120 24 -163 -16 -59 -20 -59 -79 -3 -25 23 -79 96 -84 113 -4 11 -20 35 -37 53 -72 78 -112 151 -128 239 -9 43 -19 61 -63 104 -66 66 -102 130 -117 214 -10 53 -20 72 -51 105 -56 59 -104 146 -119 214 -7 34 -16 61 -20 61 -4 0 -10 -17 -13 -37 -3 -21 -10 -51 -16 -67 l-12 -29 -27 30 c-15 17 -40 39 -57 48 -26 15 -25 13 8 -15 74 -63 74 -70 21 -240 -26 -83 -51 -150 -55 -150 -4 0 -10 10 -12 23 -4 20 -4 20 -6 1 -1 -19 -6 -20 -78 -18 -84 2 -157 24 -185 56 -16 18 -16 22 -2 43 8 12 21 78 30 146 8 67 18 127 21 132 12 20 91 47 137 47 27 0 46 3 43 7 -12 11 -96 4 -134 -12 -40 -17 -57 -19 -49 -6 3 4 8 41 10 82 5 69 7 76 38 101 18 15 38 28 43 28 6 0 22 6 36 14 37 19 99 29 99 16 0 -39 105 -190 132 -190 5 0 -9 21 -31 46 -36 41 -78 114 -94 165 -4 13 -26 17 -105 22 -87 4 -112 10 -184 41 -49 22 -119 43 -172 52 -106 17 -163 41 -225 92 -25 20 -49 38 -53 38 -5 1 -9 2 -10 3 -2 1 -30 4 -63 6 -33 2 -89 13 -125 24 -83 26 -124 67 -181 181 -45 90 -64 90 -29 1 61 -157 147 -219 326 -237 51 -5 68 -12 89 -34 l26 -28 -38 -23 c-21 -13 -62 -43 -90 -66 -29 -24 -63 -43 -76 -43 -13 0 -28 -5 -35 -12 -26 -26 -5 -162 39 -249 35 -69 66 -97 123 -110 l54 -12 155 81 c85 45 184 91 218 102 35 12 72 26 81 31 16 9 18 4 17 -63 0 -94 -31 -289 -55 -351 -17 -43 -18 -50 -4 -75 9 -15 43 -42 80 -62 61 -33 71 -35 157 -35 87 0 94 1 110 25 10 14 28 59 39 100 45 160 87 284 92 270 14 -45 59 -120 101 -169 40 -47 50 -66 59 -117 15 -86 55 -159 122 -224 50 -48 58 -61 65 -105 8 -56 38 -119 87 -185 18 -24 51 -78 73 -120 26 -47 53 -82 72 -95 47 -29 40 -39 -23 -31 -50 6 -165 54 -178 74 -3 5 -65 7 -138 4 -117 -4 -141 -2 -198 18 -36 12 -73 29 -82 37 -11 10 -29 14 -50 10 -86 -13 -209 31 -300 108 -24 20 -57 35 -95 43 -103 22 -160 56 -253 152 -52 54 -104 98 -135 113 -60 30 -136 108 -167 172 -12 25 -27 44 -33 42 -16 -6 -7 -57 21 -115 32 -65 92 -113 178 -142 52 -17 68 -28 101 -71 67 -88 177 -161 263 -175 30 -5 54 -19 92 -56 72 -69 162 -109 262 -116 54 -3 82 -1 93 8 12 10 16 9 21 -3 3 -8 29 -25 57 -38 44 -19 74 -24 196 -27 137 -4 145 -6 190 -33 25 -16 73 -34 106 -40 33 -6 68 -15 77 -20 21 -11 89 -12 104 -1 29 19 48 79 50 163 1 47 9 101 16 119 l14 34 80 -3 c50 -1 103 4 146 14 l67 17 38 -31 c60 -48 219 -113 282 -116 168 -6 283 71 386 259 144 265 166 524 85 991 -38 218 -59 350 -104 640 -47 309 -68 619 -64 945 2 157 -1 211 -16 275 -44 198 -168 453 -273 565 -91 97 -204 174 -325 221 -160 63 -235 79 -374 79 -66 0 -123 -2 -125 -4z m-26 -323 c3 -5 -2 -44 -10 -88 -17 -94 -14 -377 5 -411 9 -17 24 -23 69 -27 32 -2 62 -1 67 4 5 5 9 43 8 84 -2 50 1 74 8 70 5 -3 10 -14 10 -24 0 -10 11 -40 25 -67 14 -27 25 -50 25 -51 0 -2 -18 -12 -40 -23 -71 -36 -101 -121 -66 -189 23 -43 114 -77 233 -87 82 -7 144 5 210 42 47 27 69 74 60 130 -6 38 4 43 34 16 19 -19 19 -20 -26 -93 -25 -41 -56 -101 -69 -133 -22 -55 -28 -60 -72 -75 -60 -21 -92 -59 -73 -89 37 -60 223 -79 291 -30 16 10 28 26 28 35 0 12 7 14 37 8 83 -15 85 -27 19 -158 -34 -68 -47 -85 -80 -101 -34 -17 -43 -17 -70 -6 -61 25 -81 23 -152 -13 -88 -44 -220 -97 -243 -97 -29 0 -41 -22 -41 -71 0 -52 -17 -74 -34 -45 -27 46 -137 175 -177 207 -70 57 -170 119 -194 119 -11 0 -26 5 -32 11 -26 26 -276 -46 -390 -112 -41 -23 -42 -23 -79 -5 -21 10 -55 31 -76 48 -35 27 -38 34 -38 78 0 91 8 108 51 115 44 8 94 44 102 75 8 30 -27 66 -75 78 -23 6 -45 9 -49 6 -9 -5 -17 19 -23 71 -3 22 -8 66 -11 97 l-7 57 41 7 c39 6 44 11 78 73 68 123 240 357 218 296 -29 -78 -47 -147 -50 -189 -3 -48 -5 -50 -42 -61 -99 -30 -133 -65 -135 -140 -1 -67 23 -94 103 -117 84 -24 165 -23 241 3 78 26 117 53 133 94 16 37 6 96 -20 125 -19 21 -96 50 -132 50 -13 0 -23 6 -23 14 0 37 120 224 225 351 36 44 74 92 83 108 9 15 22 25 27 23 6 -2 19 0 30 5 26 10 63 11 68 2z m-549 -551 c-43 -29 -58 -117 -28 -173 8 -17 13 -33 10 -36 -3 -3 -26 0 -51 7 -120 34 -110 163 15 201 52 16 77 16 54 1z m861 -17 c-19 -20 -35 -46 -36 -58 -2 -46 3 -93 13 -110 5 -10 7 -21 4 -24 -9 -10 -126 19 -147 36 -32 26 -36 90 -8 125 31 39 93 66 157 66 l53 0 -36 -35z m-624 -4 c45 -45 35 -111 -21 -144 -42 -25 -53 -22 -35 13 19 38 19 109 -1 138 -14 21 -14 22 6 22 12 0 35 -13 51 -29z m871 -35 c36 -44 16 -111 -44 -142 -36 -19 -44 -13 -25 18 22 35 29 82 18 123 -9 34 -9 36 12 29 12 -3 30 -16 39 -28z m-1327 -296 c52 -12 71 -37 48 -62 -34 -38 -154 -46 -199 -14 -24 18 -10 49 29 69 37 18 66 20 122 7z m1400 -51 c45 -22 54 -45 28 -71 -22 -21 -26 -22 -107 -11 -96 11 -147 36 -125 59 41 40 144 52 204 23z m-919 -225 c20 -5 20 -7 -14 -72 -99 -185 -183 -522 -199 -789 -6 -106 -8 -116 -30 -130 -23 -15 -27 -14 -92 31 -37 25 -75 46 -84 46 -9 0 -19 5 -23 11 -13 21 -149 78 -240 99 -49 12 -108 32 -132 43 -42 22 -43 23 -36 62 19 125 181 350 325 453 203 145 314 206 419 232 90 22 80 21 106 14z m128 -48 c94 -70 207 -194 276 -305 30 -48 68 -107 84 -132 48 -72 96 -176 110 -237 8 -36 18 -57 27 -57 9 0 13 8 11 25 -6 40 21 9 52 -60 15 -33 34 -60 42 -60 8 0 14 6 14 13 0 18 -47 115 -70 144 -17 22 -18 28 -6 52 18 34 101 111 120 111 7 0 17 7 20 16 11 29 14 29 -69 -13 -23 -11 -54 -40 -71 -66 l-32 -46 -19 22 c-20 22 -63 103 -123 231 l-32 70 26 19 c20 14 25 24 20 43 -5 21 -3 24 20 24 19 0 32 -8 44 -29 18 -32 37 -41 90 -41 18 0 35 -6 38 -14 3 -7 -7 -42 -21 -76 -14 -34 -24 -64 -21 -67 5 -5 43 78 52 114 3 12 12 27 19 33 15 12 175 18 193 7 6 -5 12 -26 12 -47 l0 -38 -30 11 c-24 9 -27 14 -17 26 10 12 9 13 -1 7 -19 -11 -64 -86 -60 -98 2 -6 10 2 17 19 l13 31 40 -16 41 -16 -7 -106 c-3 -58 -14 -140 -23 -183 -11 -52 -13 -81 -7 -87 12 -12 6 -72 -6 -65 -9 5 -16 -28 -25 -120 -8 -71 -43 -204 -60 -225 -7 -8 -18 -31 -24 -51 -6 -20 -22 -46 -36 -59 -22 -21 -29 -22 -112 -15 -81 6 -92 5 -143 -19 l-54 -25 -19 49 c-10 28 -25 50 -33 50 -18 0 -18 5 8 -87 15 -56 22 -108 22 -183 l1 -105 -46 1 c-76 0 -151 45 -260 153 -53 53 -106 116 -119 141 -12 25 -34 58 -47 74 -39 47 -60 97 -87 207 -26 109 -47 296 -39 364 13 124 67 358 112 490 29 84 108 255 117 255 3 0 38 -24 78 -54z m-1634 -307 c-41 -22 -91 -53 -110 -67 -64 -48 -172 -156 -215 -217 -48 -67 -105 -172 -105 -193 0 -8 -6 -26 -14 -40 -8 -15 -17 -36 -21 -47 -7 -19 -8 -19 -17 5 -14 34 -5 121 22 209 21 71 27 80 114 165 50 50 117 106 149 125 51 30 235 101 262 101 6 0 -24 -19 -65 -41z m649 -439 c47 -11 89 -24 95 -29 6 -5 49 -19 96 -31 47 -12 114 -36 150 -53 36 -18 70 -32 77 -32 7 0 25 -12 40 -27 61 -58 121 -76 175 -53 13 5 19 -2 28 -37 33 -128 56 -193 85 -237 18 -27 48 -80 66 -117 61 -125 227 -264 360 -304 76 -23 103 -22 123 5 12 16 15 5 30 -92 21 -139 21 -329 0 -490 l-17 -124 -18 51 c-10 29 -22 57 -27 64 -6 6 -34 65 -64 131 -30 67 -68 141 -85 165 -16 25 -36 63 -43 85 -29 90 -106 219 -204 340 -61 76 -308 325 -317 319 -4 -2 -16 15 -27 38 -10 24 -36 58 -58 77 -39 34 -169 101 -198 101 -18 0 -58 19 -171 81 -22 12 -81 36 -131 53 -85 29 -95 35 -133 84 l-41 52 62 0 c35 0 101 -9 147 -20z m-103 -360 c19 0 71 -65 82 -102 6 -18 13 -55 16 -83 l6 -50 -133 -67 -132 -67 -6 32 c-6 32 -6 32 -8 -7 l-1 -39 -57 6 c-50 5 -62 11 -86 39 -53 63 -91 203 -68 247 9 15 22 21 49 22 27 0 64 16 132 58 l95 57 50 -23 c28 -12 55 -23 61 -23z m254 -59 c36 -17 77 -31 92 -31 15 0 30 -4 33 -10 3 -5 -1 -10 -9 -10 -8 0 -31 -13 -49 -30 -19 -16 -44 -30 -56 -30 -12 0 -49 -14 -82 -31 -34 -17 -62 -29 -63 -27 -2 2 -7 36 -13 76 -8 51 -19 83 -37 106 l-25 33 52 10 c44 8 55 6 72 -8 11 -10 49 -31 85 -48z m-936 -256 c-9 -14 -18 -25 -20 -25 -2 0 -4 28 -4 63 l1 62 20 -37 c18 -36 18 -40 3 -63z m3095 -25 c2 -187 -38 -377 -102 -489 -38 -67 -124 -149 -166 -160 -37 -10 -86 -14 -131 -12 -25 2 -25 2 -4 14 50 28 184 191 229 277 53 103 131 331 140 410 14 114 32 92 34 -40z m-574 -157 c-57 -136 -206 -331 -297 -389 -21 -13 -40 -24 -42 -24 -3 0 -5 37 -5 83 l0 82 76 39 c59 31 99 63 177 141 56 56 102 103 104 104 1 0 -5 -16 -13 -36z" style="fill: rgb(255, 255, 255);"/>
    <path d="M2944 3290 c-111 -16 -118 -43 -41 -151 58 -80 79 -88 122 -49 25 23 71 113 80 157 6 29 4 34 -20 43 -29 11 -65 11 -141 0z m131 -31 c9 -13 -48 -130 -76 -154 -20 -19 -21 -19 -40 5 -51 66 -92 131 -86 137 20 19 191 30 202 12z" style="fill: rgb(255, 255, 255);"/>
    <path d="M3380 2508 c-22 -36 -25 -48 -11 -48 14 0 51 69 41 75 -5 3 -19 -9 -30 -27z" style="fill: rgb(255, 255, 255);"/>
    <path d="M3095 1888 c8 -85 11 -98 25 -98 11 0 14 127 4 154 -3 9 -13 16 -21 16 -12 0 -13 -13 -8 -72z" style="fill: rgb(255, 255, 255);"/>
    <path d="M1530 1777 c0 -2 15 -16 33 -33 l32 -29 -29 33 c-28 30 -36 37 -36 29z" style="fill: rgb(255, 255, 255);"/>
    <path d="M1620 1624 c0 -19 4 -33 8 -30 8 5 4 66 -4 66 -2 0 -4 -16 -4 -36z" style="fill: rgb(255, 255, 255);"/>
    <path d="M2111 1276 c2 -2 36 -6 74 -9 43 -3 60 -2 45 3 -24 8 -127 14 -119 6z" style="fill: rgb(255, 255, 255);"/>
    <path d="M2301 1203 c7 -12 15 -20 18 -17 3 2 -3 12 -13 22 -17 16 -18 16 -5 -5z" style="fill: rgb(255, 255, 255);"/>
  </g>
</svg>